# xmcd
#
# Track frame offsets:
#  150
#  17246
#  31919
#  49325
#  63771
#  76581
#  89769
#  105523
#  122390
#
# Disc length: 1804 seconds
#
# Revision: 0
# Processed by: cddbd v1.5.1PL2 Copyright (c) Steve Scherf et al.
# Submitted via: Collectorz.com_Music_Collector 6.9
#
DISCID=64070a09
DTITLE=Crystal Gayle - These Days
DYEAR=1992
DGENRE=
TTITLE0=01 - Too Many Lovers
TTITLE1=02 - Don't Ever Change Your Mind
TTITLE2=03 - Ain't No Love In The Heart Of The City
TTITLE3=04 - Same Old Story (same Old Song)
TTITLE4=05 - Help Yourselves To Each Other
TTITLE5=07 - I Just Can't Leave Your Love Alone
TTITLE6=08 - You've Almost Got Me Believin'
TTITLE7=09 - Lover Man
TTITLE8=10 - What A Little Moonlight Can Do
EXTD=
EXTT0=
EXTT1=
EXTT2=
EXTT3=
EXTT4=
EXTT5=
EXTT6=
EXTT7=
EXTT8=
PLAYORDER=
